<?xml version="1.0" encoding="utf-8"?>
<!-- Generator: Adobe Illustrator 18.1.1, SVG Export Plug-In . SVG Version: 6.00 Build 0)  -->
<svg version="1.1" xmlns="http://www.w3.org/2000/svg" xmlns:xlink="http://www.w3.org/1999/xlink" x="0px" y="0px" width="716.6px"
	 height="356.4px" viewBox="0 0 716.6 356.4" style="enable-background:new 0 0 716.6 356.4;" xml:space="preserve">
<style type="text/css">
	.st0{fill:#503300;}
	.st1{fill:#FFFFFF;}
	.st2{fill:#DF0900;}
	.st3{fill:#FFC300;}
	.st4{fill:#DF0900;stroke:#503300;stroke-width:3.5;stroke-miterlimit:10;}
	.st5{fill:none;}
</style>
<g id="Layer_1">
</g>
<g id="Layer_2">
	<g>
		<path class="st0" d="M691.3,89v235.9h-671V89C20.3,89,343.3-37,691.3,89z"/>
		<path class="st1" d="M683.3,95.7v221.2h-655V95.7C28.3,95.7,342.3-22.3,683.3,95.7z"/>
		<path class="st2" d="M675.3,101v207.9h-641V101C34.3,101,342.3-9.9,675.3,101z"/>
		<g>
			<path class="st3" d="M469.5,224.4c0,0,19.5-15.6,6.9-50.6c-12.5-35,8.6-45,8.6-45s-31,11.9-21.2,51.4S469.5,224.4,469.5,224.4z"
				/>
			<path class="st3" d="M507.6,214.6c0,0,10.1-6.2,3.6-20.1c-6.5-13.9,4.5-17.9,4.5-17.9s-16.1,4.7-11,20.4
				C509.8,212.7,507.6,214.6,507.6,214.6z"/>
			<path class="st3" d="M418.5,211c0,0,10.1-5.8,3.6-19c-6.5-13.2,4.5-16.9,4.5-16.9s-16.1,4.5-11,19.3S418.5,211,418.5,211z"/>
			<path class="st3" d="M498.4,196.6c0,0-13.4-8.2-4.8-26.6c8.6-18.4-5.9-23.7-5.9-23.7s21.3,6.3,14.6,27
				C495.5,194,498.4,196.6,498.4,196.6z"/>
			<path class="st3" d="M525.8,212.6c0,0-11.5-7-4.1-22.8s-5.1-20.3-5.1-20.3s18.3,5.4,12.5,23.2S525.8,212.6,525.8,212.6z"/>
			<path class="st3" d="M439.5,214.4c0,0-13.4-8.2-4.8-26.6c8.6-18.4-5.9-23.7-5.9-23.7s21.3,6.3,14.6,27S439.5,214.4,439.5,214.4z"
				/>
			<path class="st3" d="M457.3,217c0,0-8.8-5.4-3.1-17.6c5.7-12.2-3.9-15.7-3.9-15.7s14.1,4.1,9.6,17.9
				C455.4,215.4,457.3,217,457.3,217z"/>
			<path class="st3" d="M489.4,219.7c0,0-8.8-5.4-3.1-17.6c5.7-12.2-3.9-15.7-3.9-15.7s14.1,4.1,9.6,17.9
				C487.5,218.1,489.4,219.7,489.4,219.7z"/>
			<path class="st3" d="M453.7,180.5c0,0,8.8-5.4,3.1-17.6c-5.7-12.2,3.9-15.7,3.9-15.7s-14.1,4.1-9.6,17.9
				C455.6,178.9,453.7,180.5,453.7,180.5z"/>
		</g>
		<path class="st4" d="M602.9,166.2h-38.2c-3.1,0-5.6-2.5-5.6-5.6v-1.8c0-3.1,2.5-5.6,5.6-5.6h38.2c3.1,0,5.6,2.5,5.6,5.6v1.8
			C608.6,163.6,606,166.2,602.9,166.2z"/>
		<path class="st4" d="M601.8,203.9h-35.7c-3.8,0-6.9-3.1-6.9-6.9v-5.8c0-3.8,3.1-6.9,6.9-6.9h35.7c3.8,0,6.9,3.1,6.9,6.9v5.8
			C608.8,200.8,605.6,203.9,601.8,203.9z"/>
		<path class="st4" d="M603.8,181.8H564c-2.7,0-4.9-2.2-4.9-4.9l0,0c0-2.7,2.2-4.9,4.9-4.9h39.8c2.7,0,4.9,2.2,4.9,4.9l0,0
			C608.7,179.6,606.5,181.8,603.8,181.8z"/>
		<path class="st4" d="M600.6,231.9h-33.3c-4.5,0-8.1-3.6-8.1-8.1V213c0-4.5,3.6-8.1,8.1-8.1h33.3c4.5,0,8.1,3.6,8.1,8.1v10.8
			C608.8,228.3,605.1,231.9,600.6,231.9z"/>
		<path class="st4" d="M602.8,180.8H563c-2.7,0-4.9-2.2-4.9-4.9l0,0c0-2.7,2.2-4.9,4.9-4.9h39.8c2.7,0,4.9,2.2,4.9,4.9l0,0
			C607.7,178.6,605.5,180.8,602.8,180.8z"/>
		<path class="st4" d="M602.9,243.1h-39.8c-2.7,0-4.9-2.2-4.9-4.9v0c0-2.7,2.2-4.9,4.9-4.9h39.8c2.7,0,4.9,2.2,4.9,4.9v0
			C607.7,240.9,605.6,243.1,602.9,243.1z"/>
		<path class="st4" d="M381.1,228.8h-38.2c-3.1,0-5.6,2.5-5.6,5.6v1.8c0,3.1,2.5,5.6,5.6,5.6h38.2c3.1,0,5.6-2.5,5.6-5.6v-1.8
			C386.7,231.4,384.2,228.8,381.1,228.8z"/>
		<path class="st4" d="M380,190.2h-35.7c-3.8,0-6.9,3.1-6.9,6.9v5.8c0,3.8,3.1,6.9,6.9,6.9H380c3.8,0,6.9-3.1,6.9-6.9v-5.8
			C386.9,193.3,383.8,190.2,380,190.2z"/>
		<path class="st4" d="M381.9,213.2h-39.8c-2.7,0-4.9,2.2-4.9,4.9v0c0,2.7,2.2,4.9,4.9,4.9h39.8c2.7,0,4.9-2.2,4.9-4.9v0
			C386.8,215.4,384.6,213.2,381.9,213.2z"/>
		<path class="st4" d="M378.8,161.1h-33.3c-4.5,0-8.1,3.6-8.1,8.1V180c0,4.5,3.6,8.1,8.1,8.1h33.3c4.5,0,8.1-3.6,8.1-8.1v-10.8
			C386.9,164.8,383.2,161.1,378.8,161.1z"/>
		<path class="st4" d="M380.9,214.2h-39.8c-2.7,0-4.9,2.2-4.9,4.9v0c0,2.7,2.2,4.9,4.9,4.9h39.8c2.7,0,4.9-2.2,4.9-4.9v0
			C385.8,216.4,383.6,214.2,380.9,214.2z"/>
		<path class="st4" d="M381,148.9h-39.8c-2.7,0-4.9,2.2-4.9,4.9v0c0,2.7,2.2,4.9,4.9,4.9H381c2.7,0,4.9-2.2,4.9-4.9v0
			C385.9,151.1,383.7,148.9,381,148.9z"/>
		<path class="st4" d="M555.2,250.4v30.7c0,2.8-2.3,5.1-5.1,5.1h-2.8c-2.8,0-5.1-2.3-5.1-5.1v-30.7c0-2.8,2.3-5.1,5.1-5.1h2.8
			C552.9,245.2,555.2,247.6,555.2,250.4z"/>
		<path class="st4" d="M590.9,249.4v28.4c0,3.5-2.8,6.3-6.3,6.3h-7c-3.5,0-6.3-2.8-6.3-6.3v-28.4c0-3.5,2.8-6.3,6.3-6.3h7
			C588,243.1,590.9,245.9,590.9,249.4z"/>
		<path class="st4" d="M568.8,247.6v32.2c0,2.4-2,4.4-4.4,4.4h-0.9c-2.4,0-4.4-2-4.4-4.4v-32.2c0-2.4,2-4.4,4.4-4.4h0.9
			C566.8,243.2,568.8,245.2,568.8,247.6z"/>
		<path class="st4" d="M618.9,250.5v26.3c0,4.1-3.3,7.4-7.4,7.4h-12.3c-4.1,0-7.4-3.3-7.4-7.4v-26.3c0-4.1,3.3-7.4,7.4-7.4h12.3
			C615.6,243.1,618.9,246.4,618.9,250.5z"/>
		<path class="st4" d="M566.8,248.4v32.2c0,2.4-2,4.4-4.4,4.4h-0.9c-2.4,0-4.4-2-4.4-4.4v-32.2c0-2.4,2-4.4,4.4-4.4h0.9
			C564.8,244,566.8,246,566.8,248.4z"/>
		<path class="st4" d="M630.1,248.4v32.2c0,2.4-2,4.4-4.4,4.4h-0.9c-2.4,0-4.4-2-4.4-4.4v-32.2c0-2.4,2-4.4,4.4-4.4h0.9
			C628.1,243.9,630.1,245.9,630.1,248.4z"/>
		<path class="st4" d="M465.1,248.7v30.7c0,2.8-2.3,5.1-5.1,5.1h-2.8c-2.8,0-5.1-2.3-5.1-5.1v-30.7c0-2.8,2.3-5.1,5.1-5.1h2.8
			C462.8,243.6,465.1,245.9,465.1,248.7z"/>
		<path class="st4" d="M500.8,249.7v28.4c0,3.5-2.8,6.3-6.3,6.3h-7c-3.5,0-6.3-2.8-6.3-6.3v-28.4c0-3.5,2.8-6.3,6.3-6.3h7
			C498,243.4,500.8,246.2,500.8,249.7z"/>
		<path class="st4" d="M478.8,247.9v32.2c0,2.4-2,4.4-4.4,4.4h-0.9c-2.4,0-4.4-2-4.4-4.4v-32.2c0-2.4,2-4.4,4.4-4.4h0.9
			C476.8,243.5,478.8,245.5,478.8,247.9z"/>
		<path class="st4" d="M528.9,250.8V277c0,4.1-3.3,7.4-7.4,7.4h-12.3c-4.1,0-7.4-3.3-7.4-7.4v-26.3c0-4.1,3.3-7.4,7.4-7.4h12.3
			C525.6,243.4,528.9,246.7,528.9,250.8z"/>
		<path class="st4" d="M475.8,248.7v32.2c0,2.4-2,4.4-4.4,4.4h-0.9c-2.4,0-4.4-2-4.4-4.4v-32.2c0-2.4,2-4.4,4.4-4.4h0.9
			C473.8,244.3,475.8,246.3,475.8,248.7z"/>
		<path class="st4" d="M540.1,248.7v32.2c0,2.4-2,4.4-4.4,4.4h-0.9c-2.4,0-4.4-2-4.4-4.4v-32.2c0-2.4,2-4.4,4.4-4.4h0.9
			C538.1,244.2,540.1,246.2,540.1,248.7z"/>
		<path class="st4" d="M373.1,248.3V279c0,2.8-2.3,5.1-5.1,5.1h-2.8c-2.8,0-5.1-2.3-5.1-5.1v-30.7c0-2.8,2.3-5.1,5.1-5.1h2.8
			C370.8,243.1,373.1,245.4,373.1,248.3z"/>
		<path class="st4" d="M410.8,249.2v28.4c0,3.5-2.8,6.3-6.3,6.3h-7c-3.5,0-6.3-2.8-6.3-6.3v-28.4c0-3.5,2.8-6.3,6.3-6.3h7
			C408,242.9,410.8,245.8,410.8,249.2z"/>
		<path class="st4" d="M388.7,247.5v32.2c0,2.4-2,4.4-4.4,4.4h-0.9c-2.4,0-4.4-2-4.4-4.4v-32.2c0-2.4,2-4.4,4.4-4.4h0.9
			C386.7,243,388.7,245,388.7,247.5z"/>
		<path class="st4" d="M438.8,250.3v26.3c0,4.1-3.3,7.4-7.4,7.4h-12.3c-4.1,0-7.4-3.3-7.4-7.4v-26.3c0-4.1,3.3-7.4,7.4-7.4h12.3
			C435.5,242.9,438.8,246.3,438.8,250.3z"/>
		<path class="st4" d="M385.7,248.3v32.2c0,2.4-2,4.4-4.4,4.4h-0.9c-2.4,0-4.4-2-4.4-4.4v-32.2c0-2.4,2-4.4,4.4-4.4h0.9
			C383.7,243.9,385.7,245.9,385.7,248.3z"/>
		<path class="st4" d="M450,248.2v32.2c0,2.4-2,4.4-4.4,4.4h-0.9c-2.4,0-4.4-2-4.4-4.4v-32.2c0-2.4,2-4.4,4.4-4.4h0.9
			C448,243.8,450,245.8,450,248.2z"/>
		<path class="st4" d="M345.4,248.8v30.7c0,2.8-2.3,5.1-5.1,5.1h-2.8c-2.8,0-5.1-2.3-5.1-5.1v-30.7c0-2.8,2.3-5.1,5.1-5.1h2.8
			C343.1,243.7,345.4,246,345.4,248.8z"/>
		<path class="st4" d="M359,247v32.2c0,2.4-2,4.4-4.4,4.4h-0.9c-2.4,0-4.4-2-4.4-4.4V247c0-2.4,2-4.4,4.4-4.4h0.9
			C357,242.6,359,244.6,359,247z"/>
		<path class="st4" d="M358,247.9V280c0,2.4-2,4.4-4.4,4.4h-0.9c-2.4,0-4.4-2-4.4-4.4v-32.2c0-2.4,2-4.4,4.4-4.4h0.9
			C356,243.4,358,245.4,358,247.9z"/>
		<path class="st4" d="M330.3,247.7v32.2c0,2.4-2,4.4-4.4,4.4H325c-2.4,0-4.4-2-4.4-4.4v-32.2c0-2.4,2-4.4,4.4-4.4h0.9
			C328.3,243.3,330.3,245.3,330.3,247.7z"/>
		<path class="st4" d="M379.7,133.3h-38.2c-3.1,0-5.6-2.5-5.6-5.6v-1.8c0-3.1,2.5-5.6,5.6-5.6h38.2c3.1,0,5.6,2.5,5.6,5.6v1.8
			C385.3,130.8,382.8,133.3,379.7,133.3z"/>
		<path class="st4" d="M380.5,148.9h-39.8c-2.7,0-4.9-2.2-4.9-4.9v0c0-2.7,2.2-4.9,4.9-4.9h39.8c2.7,0,4.9,2.2,4.9,4.9v0
			C385.4,146.8,383.2,148.9,380.5,148.9z"/>
		<path class="st4" d="M379.5,147.9h-39.8c-2.7,0-4.9-2.2-4.9-4.9v0c0-2.7,2.2-4.9,4.9-4.9h39.8c2.7,0,4.9,2.2,4.9,4.9v0
			C384.4,145.8,382.2,147.9,379.5,147.9z"/>
		<path class="st4" d="M602.5,137h-38.2c-3.1,0-5.6-2.5-5.6-5.6v-1.8c0-3.1,2.5-5.6,5.6-5.6h38.2c3.1,0,5.6,2.5,5.6,5.6v1.8
			C608.2,134.4,605.6,137,602.5,137z"/>
		<path class="st4" d="M603.4,152.6h-39.8c-2.7,0-4.9-2.2-4.9-4.9v0c0-2.7,2.2-4.9,4.9-4.9h39.8c2.7,0,4.9,2.2,4.9,4.9v0
			C608.2,150.4,606.1,152.6,603.4,152.6z"/>
		<path class="st4" d="M602.4,151.6h-39.8c-2.7,0-4.9-2.2-4.9-4.9v0c0-2.7,2.2-4.9,4.9-4.9h39.8c2.7,0,4.9,2.2,4.9,4.9v0
			C607.2,149.4,605.1,151.6,602.4,151.6z"/>
		<path class="st4" d="M493.4,84.2l-4.5,31.2c-0.4,2.6-2.8,4.4-5.4,4l-1.7-0.2c-2.6-0.4-4.4-2.8-4-5.4l4.5-31.2
			c0.4-2.6,2.8-4.4,5.4-4l1.7,0.2C492,79.2,493.8,81.6,493.4,84.2z"/>
		<path class="st4" d="M477.8,82.9v32.2c0,2.4-2,4.4-4.4,4.4h-0.9c-2.4,0-4.4-2-4.4-4.4V82.9c0-2.4,2-4.4,4.4-4.4h0.9
			C475.8,78.5,477.8,80.5,477.8,82.9z"/>
		<path class="st4" d="M385.5,102.3l13.7,27.5c1.3,2.5,0.2,5.6-2.3,6.9l-2.5,1.3c-2.5,1.3-5.6,0.2-6.9-2.3l-13.7-27.5
			c-1.3-2.5-0.2-5.6,2.3-6.9l2.5-1.3C381.1,98.7,384.2,99.8,385.5,102.3z"/>
		<path class="st4" d="M421.7,90.8l6.4,27.7c0.8,3.4-1.3,6.8-4.7,7.5l-6.9,1.6c-3.4,0.8-6.8-1.3-7.5-4.7l-6.4-27.7
			c-0.8-3.4,1.3-6.8,4.7-7.5l6.9-1.6C417.5,85.3,420.9,87.4,421.7,90.8z"/>
		<path class="st4" d="M450.9,88.7l4.1,25.9c0.6,4-2.1,7.8-6.1,8.5l-12.1,1.9c-4,0.6-7.8-2.1-8.5-6.1l-4.1-25.9
			c-0.6-4,2.1-7.8,6.1-8.5l12.1-1.9C446.4,81.9,450.2,84.7,450.9,88.7z"/>
		<path class="st4" d="M396.3,95.9l11.6,30c0.9,2.3-0.3,4.8-2.5,5.7l-0.8,0.3c-2.3,0.9-4.8-0.3-5.7-2.5l-11.6-30
			c-0.9-2.3,0.3-4.8,2.5-5.7l0.8-0.3C392.8,92.5,395.4,93.7,396.3,95.9z"/>
		<path class="st4" d="M463.4,83.5l3.8,31.9c0.3,2.4-1.4,4.6-3.9,4.9l-0.9,0.1c-2.4,0.3-4.6-1.4-4.9-3.9l-3.8-31.9
			c-0.3-2.4,1.4-4.6,3.9-4.9l0.9-0.1C460.9,79.3,463.2,81,463.4,83.5z"/>
		<path class="st4" d="M360,116.6l16.5,25.9c1.5,2.4,0.8,5.6-1.6,7.1l-2.4,1.5c-2.4,1.5-5.6,0.8-7.1-1.6L349,123.6
			c-1.5-2.4-0.8-5.6,1.6-7.1l2.4-1.5C355.3,113.5,358.5,114.2,360,116.6z"/>
		<path class="st4" d="M370.2,109.8l15.3,28.3c1.2,2.1,0.3,4.8-1.8,6l-0.8,0.4c-2.1,1.2-4.8,0.3-6-1.8l-15.3-28.3
			c-1.2-2.1-0.3-4.8,1.8-6l0.8-0.4C366.3,106.9,369,107.7,370.2,109.8z"/>
		<path class="st4" d="M348.9,123.5l17.3,27.1c1.3,2.1,0.7,4.8-1.4,6.1l-0.7,0.5c-2.1,1.3-4.8,0.7-6.1-1.4l-17.3-27.1
			c-1.3-2.1-0.7-4.8,1.4-6.1l0.7-0.5C344.8,120.9,347.6,121.5,348.9,123.5z"/>
		<path class="st4" d="M556.5,102l-11.1,28.7c-1,2.6,0.3,5.6,2.9,6.6l2.6,1c2.6,1,5.6-0.3,6.6-2.9l11.1-28.7c1-2.6-0.3-5.6-2.9-6.6
			l-2.6-1C560.5,98,557.5,99.3,556.5,102z"/>
		<path class="st4" d="M544.8,97.7l-11.6,30c-0.9,2.3,0.3,4.8,2.5,5.7l0.8,0.3c2.3,0.9,4.8-0.3,5.7-2.5l11.6-30
			c0.9-2.3-0.3-4.8-2.5-5.7l-0.8-0.3C548.3,94.3,545.7,95.5,544.8,97.7z"/>
		<path class="st4" d="M582.6,116.3l-16.5,25.9c-1.5,2.4-0.8,5.6,1.6,7.1l2.4,1.5c2.4,1.5,5.6,0.8,7.1-1.6l16.5-25.9
			c1.5-2.4,0.8-5.6-1.6-7.1l-2.4-1.5C587.3,113.2,584.1,113.9,582.6,116.3z"/>
		<path class="st4" d="M572.2,109.4L555,136.6c-1.3,2.1-0.7,4.8,1.4,6.1l0.7,0.5c2.1,1.3,4.8,0.7,6.1-1.4l17.3-27.1
			c1.3-2.1,0.7-4.8-1.4-6.1l-0.7-0.5C576.3,106.8,573.5,107.4,572.2,109.4z"/>
		<path class="st4" d="M595.7,124.2l-17.3,27.1c-1.3,2.1-0.7,4.8,1.4,6.1l0.7,0.5c2.1,1.3,4.8,0.7,6.1-1.4l17.3-27.1
			c1.3-2.1,0.7-4.8-1.4-6.1l-0.7-0.5C599.7,121.6,597,122.2,595.7,124.2z"/>
		<path class="st4" d="M523.3,92.6l-7.3,27.5c-0.9,3.3,1.1,6.8,4.5,7.7l6.8,1.8c3.3,0.9,6.8-1.1,7.7-4.5l7.3-27.5
			c0.9-3.3-1.1-6.8-4.5-7.7l-6.8-1.8C527.6,87.2,524.1,89.2,523.3,92.6z"/>
		<path class="st4" d="M493.8,89.9l-4.1,25.9c-0.6,4,2.1,7.8,6.1,8.5l12.1,1.9c4,0.6,7.8-2.1,8.5-6.1l4.1-25.9
			c0.6-4-2.1-7.8-6.1-8.5l-12.1-1.9C498.3,83.1,494.4,85.9,493.8,89.9z"/>
		<g>
			<path class="st5" d="M32.6,219c0,0,135.6-87.9,283.9,0s278.1,38.5,347.1-1.1"/>
			<path class="st1" d="M83.6,190c2.9-0.7,4.9-1.5,6-2.4c1.9-1.5,2.5-3.9,1.9-7l-10.1-52.3c-0.6-3.1-2-5-4.1-5.7
				c-1.3-0.4-3.6-0.5-6.8,0l-0.5-2.7l36.5-7.1l0.5,2.7c-3.7,1-6,2.2-7.1,3.6c-1.1,1.3-1.2,4-0.4,8.1l4.5,23.1l18.7-28
				c1.3-1.9,2.1-3.3,2.5-4.1c0.3-0.8,0.4-1.7,0.2-2.6c-0.3-1.4-1.1-2.1-2.4-2.3c-1.3-0.1-3.8,0-7.4,0.5L115,111l31.3-6.1l0.5,2.7
				c-5.5,1.5-9.8,4-13,7.4c-3.1,3.4-8.8,11.4-17,23.8l40.9,34.4c0.9,0.7,1.7,1.2,2.4,1.3c0.7,0.1,1.8,0.1,3.3-0.1l0.5,2.7l-36.2,7
				l-0.5-2.7c3.3-0.7,5.5-1.2,6.6-1.7c1.1-0.5,1.6-1.2,1.4-2.2c-0.1-0.5-0.4-1-0.9-1.7c-0.5-0.6-1.4-1.5-2.6-2.5l-24.4-20.7
				l-2.2,3.3l4.1,21.1c0.6,3.1,2.1,5.1,4.4,5.8c1.3,0.4,3.5,0.4,6.5,0l0.5,2.7l-36.4,7.1L83.6,190z"/>
			<path class="st1" d="M170,134.7c4.6-4.6,10.1-6.7,16.4-6.6c3.6,0.1,7,1.1,10.1,3.1c3.1,2,5.5,4.7,7.2,8.1c1.2,2.6,2,5.9,2.4,9.9
				c0.2,1.9,0.3,3.4,0.3,4.4l-28.1-0.7c0.1,4.4,0.8,8.2,1.9,11.5c2,6.1,5.7,9.2,11.1,9.4c2.6,0.1,5-0.7,7.4-2.2
				c1.4-0.9,3.2-2.5,5.3-4.8l2.5,1.6c-3.5,5.5-7.6,9.3-12.1,11.3c-2.9,1.3-6.3,1.9-10.1,1.8c-5.4-0.1-10.4-2.4-15-6.8
				c-4.6-4.4-6.8-11.2-6.6-20.6C162.9,145.7,165.4,139.2,170,134.7z M193,149.2c0.1-6.5-0.3-11-1.2-13.6c-0.9-2.6-2.7-3.9-5.5-4
				c-2.9-0.1-4.9,1.4-6,4.3c-1.1,2.9-1.9,7.3-2.1,12.9L193,149.2z"/>
			<path class="st1" d="M213.1,135.7l0.5-3c1.1-0.7,2.5-1.6,4.1-2.5c2.2-1.4,4.2-2.9,6.2-4.4c3.9-3,7.5-6.4,10.9-10.1l2.8,0.5
				l-3.1,18.3l10.3,1.8L244,141l-10.3-1.8l-5.5,32.6c-0.3,1.5-0.2,2.8,0,3.9c0.4,1.7,1.5,2.7,3.1,3c1.4,0.2,2.7-0.1,3.8-0.9
				s2.3-2.1,3.6-3.7l2.4,1.7c-1.8,2.7-3.7,4.9-5.8,6.5c-3.7,2.8-7.7,3.8-12.2,3c-2.5-0.4-4.7-1.3-6.4-2.6c-3.4-2.5-4.6-6.1-3.8-10.9
				l6-35.2L213.1,135.7z"/>
			<path class="st1" d="M250.3,142.4l0.9-2.9c1.2-0.6,2.6-1.2,4.4-2c2.3-1.1,4.6-2.4,6.7-3.7c4.2-2.5,8.3-5.4,12.1-8.7l2.7,0.8
				l-5.3,17.8l10,3l-1.4,4.6l-10-3l-9.5,31.7c-0.4,1.5-0.6,2.8-0.4,3.9c0.2,1.7,1.1,2.9,2.7,3.3c1.4,0.4,2.7,0.3,3.9-0.4
				c1.2-0.7,2.5-1.8,4-3.2l2.2,2c-2.1,2.5-4.3,4.4-6.5,5.7c-4,2.3-8.1,2.8-12.5,1.5c-2.5-0.7-4.5-1.8-6.1-3.3
				c-3-2.8-3.9-6.6-2.5-11.3l10.2-34.2L250.3,142.4z"/>
			<path class="st1" d="M270.3,193.6c2,0.3,3.5,0.3,4.5-0.1c1-0.4,2-1.7,3-4l21.9-51.6c0.9-2.2,1.2-3.7,0.8-4.7
				c-0.4-1-1.5-2.1-3.2-3.3l1-2.4l19.2,8.1l-25.4,59.9c-1,2.2-1.2,3.9-0.8,4.9c0.4,1,1.5,2.1,3.1,3.4l-1,2.4L269.3,196L270.3,193.6z
				"/>
			<path class="st1" d="M322.4,170.5c6.2-1.8,12.1-1.2,17.6,2c3.1,1.8,5.6,4.3,7.5,7.5s2.7,6.7,2.5,10.5c-0.1,2.8-1,6.2-2.6,9.9
				c-0.7,1.8-1.3,3.1-1.8,4l-24.4-13.9c-2,4-3.2,7.6-3.8,11c-1.1,6.3,0.7,10.8,5.4,13.5c2.2,1.3,4.8,1.8,7.6,1.5
				c1.7-0.1,4-0.7,7-1.7l1.4,2.6c-5.7,3.2-11.1,4.6-16.1,4.3c-3.2-0.2-6.5-1.3-9.7-3.1c-4.7-2.7-8.1-7-10.1-13.1
				c-2-6-0.7-13.1,3.9-21.2C310.9,177,316.1,172.4,322.4,170.5z M335.8,194.2c3.1-5.7,5-9.8,5.4-12.6c0.5-2.7-0.5-4.7-3-6.1
				c-2.5-1.4-4.9-1.1-7.3,0.9c-2.4,2.1-5.1,5.5-8,10.4L335.8,194.2z"/>
			<path class="st1" d="M338.2,231.1c2,0.5,3.4,0.5,4.3,0.2c1.5-0.5,2.7-2,3.6-4.4l11.1-30.4c0.8-2.2,0.9-3.8,0.5-4.9
				c-0.5-1.1-1.8-2.1-3.9-3.2l0.9-2.5l19.6,7.1l-2.7,7.4c2.5-1.6,4.8-2.8,6.9-3.4c3.8-1.2,7.6-1.1,11.2,0.3c4.1,1.5,7,3.7,8.6,6.4
				c0.9,1.6,1.4,3.8,1.6,6.8l0.7,0.3c2.8-1.7,5.3-2.8,7.6-3.4c3.5-1,7-0.8,10.3,0.4c3.6,1.3,6.4,3.7,8.3,7s2,7.5,0.2,12.5l-9.5,26
				c-0.9,2.4-1,4.1-0.5,5c0.5,0.9,1.7,1.9,3.6,2.8l-0.9,2.5l-24.5-8.9l0.9-2.5c2,0.4,3.5,0.4,4.4,0c1-0.4,1.9-1.7,2.7-4.1l9.1-25
				c1-2.7,1.3-4.9,1.1-6.7c-0.3-1.8-1.5-3.1-3.7-3.9c-1.8-0.6-4-0.5-6.5,0.4c-2.6,0.9-4,1.7-4.2,2.3L389,243c-0.8,2.3-1,3.8-0.6,4.7
				c0.4,0.9,1.5,1.8,3.2,2.9l-0.9,2.5l-24.2-8.8l0.9-2.5c1.9,0.4,3.4,0.5,4.4,0.1s1.9-1.7,2.8-4.1l9.1-25c1-2.6,1.3-4.8,1.2-6.6
				c-0.2-1.8-1.4-3.1-3.8-3.9c-2.1-0.8-4.4-0.6-6.9,0.4c-2.4,1.1-3.8,1.8-3.9,2.3l-10.1,27.7c-0.8,2.3-1,3.8-0.6,4.7
				c0.4,0.9,1.5,1.8,3.2,2.9l-0.9,2.5l-24.7-9L338.2,231.1z"/>
			<path class="st1" d="M438.4,242.4c5-2.4,12.8-4.5,23.2-6.3l0.9-8c0.4-3.2-0.1-5.7-1.3-7.4c-1.2-1.7-3.5-2.7-7-3.1
				c-2-0.2-3.6,0-5,0.6c-1.3,0.6-2.1,1.4-2.2,2.5c0,0.4,0,0.8,0.1,1.1c0.1,0.3,0.3,0.6,0.5,1l0.6,0.8c0.4,0.7,0.8,1.4,1,2.1
				c0.2,0.8,0.3,1.6,0.2,2.4c-0.2,2.1-1.1,3.6-2.6,4.6c-1.5,1-3.1,1.4-5,1.2c-2.1-0.2-3.8-1-5.2-2.4c-1.3-1.4-1.9-3.3-1.6-5.6
				c0.5-4.2,2.8-7.3,7-9.3c4.2-2,9.2-2.7,15-2.1c6.2,0.7,11.2,2.4,15.1,5.3c3.9,2.9,5.4,7.5,4.7,14l-2.9,26.5
				c-0.1,0.8,0,1.5,0.4,2.1c0.3,0.6,0.8,0.9,1.3,1c0.4,0,0.8,0,1.2-0.1c0.4-0.1,0.9-0.5,1.7-1.1l1.4,2.5c-2.4,2.3-5,3.7-7.7,4.5
				c-1.7,0.5-3.5,0.6-5.3,0.4c-3.2-0.4-5.5-1.6-6.8-3.6c-0.7-1.2-1.2-2.8-1.4-5c-3.4,2.7-7,4.5-11,5.3c-2.4,0.5-4.7,0.7-7,0.4
				c-3-0.3-5.7-1.6-8.1-3.8c-2.4-2.2-3.4-5.3-2.9-9.3C430.5,248.4,433.3,244.7,438.4,242.4z M455.9,258.5c0.9-0.5,2-1.4,3.4-2.7
				l1.7-16c-3,0.4-5.7,1.2-8.1,2.5c-4,2.2-6.3,5.3-6.7,9.3c-0.3,2.4,0.1,4.3,1,5.6c1,1.3,2.1,2.1,3.5,2.2
				C452.5,259.8,454.2,259.4,455.9,258.5z"/>
			<path class="st1" d="M483.8,266.7c2-0.4,3.4-1.1,4.3-2c0.9-0.9,1.2-2.6,1-5.1l-2.7-32.2c-0.2-2.2-0.7-3.7-1.5-4.5
				c-0.8-0.8-2.4-1.2-4.8-1.3l-0.2-2.6l20.8-1.7l0.7,7.9c1.5-2.8,3.6-5.2,6.1-7.1c2.5-2,5.5-3.1,8.7-3.3c4.7-0.4,8.5,0.5,11.2,2.7
				s4.4,6.4,4.9,12.5l2.2,26.5c0.2,2.5,0.8,4,1.7,4.7c0.9,0.6,2.3,1,4.3,1.1l0.2,2.6l-25.7,2.1l-0.2-2.6c1.9-0.6,3.2-1.2,3.9-1.9
				c0.7-0.7,0.9-2.3,0.7-4.7l-2.2-26.5c-0.2-2.5-0.6-4.3-1.2-5.6c-1-2.2-2.8-3.2-5.4-2.9c-1.9,0.2-3.6,1-5,2.5
				c-1.5,1.5-2.6,3-3.3,4.5l2.4,29.3c0.2,2.4,0.7,3.9,1.5,4.5c0.8,0.6,2.2,1,4.1,1.3l0.2,2.6l-26.4,2.2L483.8,266.7z"/>
			<path class="st1" d="M543.3,220.8c2.7-3,4.6-5.5,5.9-7.5c2.2-3.6,3-6.7,2.4-9.3c-0.2-0.7-0.5-1.2-0.9-1.7
				c-0.5-0.4-1.1-0.5-1.8-0.3c-1.1,0.5-1.9,0.7-2.2,0.8c-2.3,0.5-4.4,0.2-6.2-1c-1.9-1.2-3.1-3-3.7-5.4c-0.6-2.7-0.4-5,0.8-7.1
				c1.2-2.1,3.2-3.4,5.9-4.1c3-0.7,5.8-0.2,8.4,1.5s4.4,4.5,5.3,8.3c1.3,5.5,0.4,11.1-2.8,16.7c-2,3.5-5.1,7.2-9.3,11.1L543.3,220.8
				z"/>
			<path class="st1" d="M569.5,240.3l2.9-1c2.7,4.6,5.8,7.5,9.3,8.6c3.5,1.1,6.7,1.2,9.6,0.2c2.7-0.9,4.4-2.2,5.3-3.8
				c0.8-1.6,0.9-3.4,0.3-5.4c-0.6-1.9-1.8-3.2-3.6-4.1c-1-0.5-2.4-0.8-4.4-1.1l-9-1.2c-4.7-0.6-8.4-1.8-11-3.6
				c-2.6-1.7-4.4-4.2-5.5-7.4c-1.4-4-1.1-8,0.7-11.9c1.8-3.9,5.3-6.7,10.3-8.4c2.2-0.7,4.7-1.2,7.4-1.3c2.7-0.1,4.4-0.3,5-0.5
				c0.8-0.3,1.4-0.7,1.6-1.1c0.2-0.5,0.4-1.1,0.4-1.8l2.3-0.8l5.1,15.1l-2.6,0.9c-2.2-3.2-4.7-5.5-7.7-6.9c-3-1.4-5.9-1.6-8.9-0.6
				c-2.3,0.8-3.8,2-4.5,3.7c-0.7,1.7-0.8,3.3-0.3,4.7c0.4,1.2,1.3,2.3,2.8,3.1c1.4,0.9,3.7,1.6,6.9,2l6.6,0.8
				c4.1,0.5,7.2,1.3,9.4,2.3c3.6,1.8,6.1,4.7,7.5,8.7c1.3,3.9,1.1,7.9-0.6,12.2s-5.3,7.4-10.9,9.3c-1.4,0.5-2.8,0.8-4.3,1
				s-3.4,0.3-5.7,0.3l-2,0c-0.7,0-1.2,0-1.3,0c-0.2,0-0.4,0.1-0.6,0.1c-0.6,0.2-1,0.6-1.3,1.2c-0.3,0.6-0.5,1.5-0.7,2.8l-2.5,0.8
				L569.5,240.3z"/>
		</g>
		<g>
			<path class="st5" d="M83.6,270.4c0,0,88.2-67.3,203.2,0"/>
			<path class="st3" d="M91.3,218.5l16.2-5.8c3.2-1.1,5.6-1.9,7.3-2.2c1.7-0.3,3.3-0.3,4.8,0.1s3,1.1,4.3,2.1c1.3,1,2.3,2.4,2.9,4.1
				c0.6,1.8,0.7,3.7,0.3,5.5c-0.5,1.9-1.5,3.5-2.9,4.9c2.7-0.2,5,0.3,6.9,1.5c1.9,1.2,3.3,2.9,4.1,5.1c0.6,1.8,0.8,3.6,0.6,5.6
				c-0.3,2-1,3.7-2.1,5.2c-1.1,1.5-2.7,2.8-4.8,3.8c-1.3,0.6-4.6,1.9-9.8,3.8l-13.8,4.9L91.3,218.5z M101.7,222l3.2,8.9l5.3-1.9
				c3.2-1.1,5.1-1.9,5.9-2.3c1.3-0.7,2.3-1.5,2.8-2.6c0.5-1.1,0.6-2.2,0.1-3.4c-0.4-1.2-1.1-2-2.1-2.5c-1-0.5-2.1-0.6-3.6-0.3
				c-0.8,0.2-3.2,1-7,2.4L101.7,222z M107.2,237.3l3.7,10.3l7.6-2.7c2.9-1.1,4.8-1.8,5.5-2.2c1.1-0.6,1.9-1.5,2.4-2.6
				c0.5-1.1,0.5-2.3,0-3.7c-0.4-1.2-1.1-2-1.9-2.6c-0.9-0.6-1.9-0.9-3.2-0.9c-1.2,0-3.7,0.7-7.4,2L107.2,237.3z"/>
			<path class="st3" d="M179.2,239.3l-9.3,1.3l-5-8.7l-17,2.4l-2.2,9.7l-9.1,1.3l10.9-43l9.1-1.3L179.2,239.3z M161.1,225.4l-8-14.3
				l-3.6,15.9L161.1,225.4z"/>
			<path class="st3" d="M196.2,225.8l0.4-6.9l18.7,1.2l-1,16.3c-1.9,1.6-4.6,2.9-8.2,3.9c-3.5,1.1-7,1.5-10.6,1.3
				c-4.5-0.3-8.3-1.4-11.6-3.4s-5.6-4.7-7-8.2c-1.5-3.4-2.1-7.1-1.8-11.1c0.3-4.3,1.4-8,3.5-11.2c2.1-3.2,5-5.6,8.7-7.1
				c2.8-1.2,6.3-1.7,10.4-1.4c5.3,0.3,9.4,1.7,12.3,4s4.6,5.4,5.2,9.2l-8.7,1c-0.5-2-1.5-3.7-3.1-5c-1.6-1.3-3.6-2-6.1-2.1
				c-3.8-0.2-6.9,0.7-9.2,2.9c-2.4,2.2-3.7,5.5-4,10c-0.3,4.9,0.6,8.6,2.7,11.2c2.1,2.6,5,4,8.7,4.2c1.8,0.1,3.7-0.1,5.5-0.7
				c1.9-0.6,3.5-1.3,4.8-2.2l0.3-5.2L196.2,225.8z"/>
			<path class="st3" d="M215.3,242.7l10.4-39.7l30.8,8l-1.8,6.7l-22.4-5.8l-2.3,8.8l20.9,5.4l-1.7,6.7l-20.9-5.4l-2.8,10.8l23.2,6.1
				l-1.7,6.7L215.3,242.7z"/>
			<path class="st3" d="M249.1,252.1l16.3-37.3l7.9,3.5l-13.6,31l19.8,8.7l-2.8,6.3L249.1,252.1z"/>
		</g>
		<g>
			<rect x="92" y="256.2" class="st5" width="190.4" height="119.7"/>
			<path class="st3" d="M170.8,278.8l7,2.2c-1.1,3.9-2.9,6.8-5.4,8.7c-2.5,1.9-5.7,2.8-9.5,2.8c-4.8,0-8.7-1.6-11.7-4.9
				c-3.1-3.2-4.6-7.7-4.6-13.3c0-6,1.5-10.6,4.6-13.9c3.1-3.3,7.1-4.9,12.1-4.9c4.4,0,7.9,1.3,10.7,3.9c1.6,1.5,2.8,3.7,3.7,6.6
				l-7.2,1.7c-0.4-1.9-1.3-3.3-2.6-4.4c-1.3-1.1-3-1.6-4.9-1.6c-2.7,0-4.8,1-6.5,2.9c-1.7,1.9-2.5,5-2.5,9.3c0,4.5,0.8,7.7,2.4,9.7
				c1.6,1.9,3.7,2.9,6.3,2.9c1.9,0,3.6-0.6,5-1.8C169.2,283.3,170.2,281.4,170.8,278.8z"/>
			<path class="st3" d="M181,274.3c0-3.6,0.5-6.7,1.6-9.2c0.8-1.8,1.9-3.5,3.3-4.9c1.4-1.4,3-2.5,4.6-3.2c2.2-0.9,4.8-1.4,7.7-1.4
				c5.3,0,9.5,1.6,12.7,4.9c3.2,3.3,4.7,7.8,4.7,13.6c0,5.8-1.6,10.3-4.7,13.6c-3.1,3.3-7.3,4.9-12.6,4.9c-5.3,0-9.6-1.6-12.7-4.9
				C182.6,284.4,181,280,181,274.3z M188.5,274c0,4.1,0.9,7.1,2.8,9.2c1.9,2.1,4.2,3.1,7.1,3.1s5.2-1,7.1-3.1
				c1.8-2.1,2.8-5.2,2.8-9.3c0-4.1-0.9-7.2-2.7-9.2c-1.8-2-4.2-3-7.2-3s-5.4,1-7.2,3.1C189.4,266.8,188.5,269.9,188.5,274z"/>
			<path class="st3" d="M219.8,292v-6.9h6.9v6.9H219.8z"/>
		</g>
	</g>
	<g>
	</g>
	<g>
	</g>
	<g>
	</g>
	<g>
	</g>
	<g>
	</g>
	<g>
	</g>
	<g>
	</g>
	<g>
	</g>
	<g>
	</g>
	<g>
	</g>
	<g>
	</g>
	<g>
	</g>
	<g>
	</g>
	<g>
	</g>
	<g>
	</g>
</g>
</svg>
