<?xml version="1.0" encoding="utf-8"?>
<!-- Generator: Adobe Illustrator 18.1.1, SVG Export Plug-In . SVG Version: 6.00 Build 0)  -->
<svg version="1.1" id="Layer_1" xmlns="http://www.w3.org/2000/svg" xmlns:xlink="http://www.w3.org/1999/xlink" x="0px" y="0px"
	 width="556.8px" height="552.1px" viewBox="0 0 556.8 552.1" style="enable-background:new 0 0 556.8 552.1;" xml:space="preserve"
	>
<style type="text/css">
	.st0{fill:#CC9966;}
	.st1{fill:#FFFFFF;}
</style>
<path class="st0" d="M362.5,221.4c1,0.2,2.2,0.3,3.4,0.4c-0.9,0.6-1.8,1.1-2.8,1.5C362.9,222.8,362.7,222.1,362.5,221.4z"/>
<path class="st0" d="M399.6,195.6c1.3,0.3,3,0.4,4.6,0.6c-1.2,0.8-2.5,1.5-3.8,2C400.2,197.4,399.9,196.5,399.6,195.6z"/>
<path class="st1" d="M277.3,30.8C140.3,30.8,29.1,141.9,29.1,279s111.1,248.2,248.2,248.2S525.5,416.1,525.5,279
	S414.4,30.8,277.3,30.8z M404.3,224.6c0,0,5.8,133-85.3,176.3c-91,43.2-187.9,0-187.9,0s67.7-4.7,93.4-38.6c0,0-56,3.5-85.3-102.7
	c0,0,19.9,5.8,33.8,0c0,0-31.4-18.7-33.8-99.2c0,0,74.7,86.3,149.5,78.2c0,0-4.7-78.2,57.2-78.2c25.7,0,40,11,48,23.9
	c8.5-1.8,23.8-7.1,35.7-21.7c-0.7,1.7-10.6,24.3-25.5,33.7c8.7,0.8,19.9,0.1,31.7-5.2c0,0-16.2,14-32.8,17.9
	C404.7,217.9,404.3,224.6,404.3,224.6z"/>
<path class="st0" d="M365.9,221.9c-0.9,0.6-1.8,1.1-2.8,1.5c-0.2-0.6-0.4-1.3-0.6-2C363.5,221.6,364.7,221.8,365.9,221.9z"/>
<path class="st0" d="M365.9,221.9c-0.9,0.6-1.8,1.1-2.8,1.5c-0.2-0.6-0.4-1.3-0.6-2C363.5,221.6,364.7,221.8,365.9,221.9z"/>
<path class="st0" d="M365.9,221.9c-0.9,0.6-1.8,1.1-2.8,1.5c-0.2-0.6-0.4-1.3-0.6-2C363.5,221.6,364.7,221.8,365.9,221.9z"/>
<g>
</g>
<g>
</g>
<g>
</g>
<g>
</g>
<g>
</g>
<g>
</g>
<g>
</g>
<g>
</g>
<g>
</g>
<g>
</g>
<g>
</g>
<g>
</g>
<g>
</g>
<g>
</g>
<g>
</g>
</svg>
