<?xml version="1.0" encoding="utf-8"?>
<!-- Generator: Adobe Illustrator 18.1.1, SVG Export Plug-In . SVG Version: 6.00 Build 0)  -->
<svg version="1.1" id="Layer_1" xmlns="http://www.w3.org/2000/svg" xmlns:xlink="http://www.w3.org/1999/xlink" x="0px" y="0px"
	 width="555.1px" height="589.7px" viewBox="0 0 555.1 589.7" style="enable-background:new 0 0 555.1 589.7;" xml:space="preserve"
	>
<style type="text/css">
	.st0{fill:#FFFFFF;}
</style>
<path class="st0" d="M281.1,44.2c-139.9,0-253.4,113.4-253.4,253.3s113.5,253.4,253.4,253.4s253.3-113.5,253.3-253.4
	S421,44.2,281.1,44.2z M191.9,363.1c-37.5,0-67.9-30.4-67.9-67.9c0-37.5,30.4-68,67.9-68c37.5,0,68,30.4,68,68
	C259.9,332.7,229.4,363.1,191.9,363.1z M361,363.1c-37.5,0-67.9-30.4-67.9-67.9c0-37.5,30.4-68,67.9-68c37.5,0,68,30.4,68,68
	C429,332.7,398.6,363.1,361,363.1z"/>
<g>
</g>
<g>
</g>
<g>
</g>
<g>
</g>
<g>
</g>
<g>
</g>
<g>
</g>
<g>
</g>
<g>
</g>
<g>
</g>
<g>
</g>
<g>
</g>
<g>
</g>
<g>
</g>
<g>
</g>
</svg>
