<svg xmlns="http://www.w3.org/2000/svg" width="555.1" height="589.7" viewBox="0 0 555.1 589.7"><style type="text/css">.st0{fill:#FFFFFF;}</style><path class="st0" d="M281.1 44.2c-139.9 0-253.4 113.4-253.4 253.3s113.5 253.4 253.4 253.4 253.3-113.5 253.3-253.4-113.4-253.3-253.3-253.3zm-89.2 318.9c-37.5 0-67.9-30.4-67.9-67.9 0-37.5 30.4-68 67.9-68 37.5 0 68 30.4 68 68 0 37.5-30.5 67.9-68 67.9zm169.1 0c-37.5 0-67.9-30.4-67.9-67.9 0-37.5 30.4-68 67.9-68 37.5 0 68 30.4 68 68 0 37.5-30.4 67.9-68 67.9z"/></svg>