<svg xmlns="http://www.w3.org/2000/svg" width="716.6" height="356.4" viewBox="0 0 716.6 356.4"><style type="text/css">.st0{fill:#503300;} .st1{fill:#FFFFFF;} .st2{fill:#DF0900;} .st3{fill:#FFC300;} .st4{fill:#DF0900;stroke:#503300;stroke-width:3.5;stroke-miterlimit:10;} .st5{fill:none;}</style><g id="Layer_2"><path class="st0" d="M691.3 89v235.9h-671v-235.9s323-126 671 0z"/><path class="st1" d="M683.3 95.7v221.2h-655v-221.2s314-118 655 0z"/><path class="st2" d="M675.3 101v207.9h-641v-207.9s308-110.9 641 0z"/><path class="st3" d="M469.5 224.4s19.5-15.6 6.9-50.6c-12.5-35 8.6-45 8.6-45s-31 11.9-21.2 51.4l5.7 44.2zM507.6 214.6s10.1-6.2 3.6-20.1c-6.5-13.9 4.5-17.9 4.5-17.9s-16.1 4.7-11 20.4c5.1 15.7 2.9 17.6 2.9 17.6zM418.5 211s10.1-5.8 3.6-19 4.5-16.9 4.5-16.9-16.1 4.5-11 19.3l2.9 16.6zM498.4 196.6s-13.4-8.2-4.8-26.6c8.6-18.4-5.9-23.7-5.9-23.7s21.3 6.3 14.6 27c-6.8 20.7-3.9 23.3-3.9 23.3zM525.8 212.6s-11.5-7-4.1-22.8l-5.1-20.3s18.3 5.4 12.5 23.2l-3.3 19.9zM439.5 214.4s-13.4-8.2-4.8-26.6c8.6-18.4-5.9-23.7-5.9-23.7s21.3 6.3 14.6 27l-3.9 23.3zM457.3 217s-8.8-5.4-3.1-17.6c5.7-12.2-3.9-15.7-3.9-15.7s14.1 4.1 9.6 17.9c-4.5 13.8-2.6 15.4-2.6 15.4zM489.4 219.7s-8.8-5.4-3.1-17.6c5.7-12.2-3.9-15.7-3.9-15.7s14.1 4.1 9.6 17.9c-4.5 13.8-2.6 15.4-2.6 15.4zM453.7 180.5s8.8-5.4 3.1-17.6c-5.7-12.2 3.9-15.7 3.9-15.7s-14.1 4.1-9.6 17.9c4.5 13.8 2.6 15.4 2.6 15.4z"/><path class="st4" d="M602.9 166.2h-38.2c-3.1 0-5.6-2.5-5.6-5.6v-1.8c0-3.1 2.5-5.6 5.6-5.6h38.2c3.1 0 5.6 2.5 5.6 5.6v1.8c.1 3-2.5 5.6-5.6 5.6zM601.8 203.9h-35.7c-3.8 0-6.9-3.1-6.9-6.9v-5.8c0-3.8 3.1-6.9 6.9-6.9h35.7c3.8 0 6.9 3.1 6.9 6.9v5.8c.1 3.8-3.1 6.9-6.9 6.9zM603.8 181.8h-39.8c-2.7 0-4.9-2.2-4.9-4.9s2.2-4.9 4.9-4.9h39.8c2.7 0 4.9 2.2 4.9 4.9s-2.2 4.9-4.9 4.9zM600.6 231.9h-33.3c-4.5 0-8.1-3.6-8.1-8.1v-10.8c0-4.5 3.6-8.1 8.1-8.1h33.3c4.5 0 8.1 3.6 8.1 8.1v10.8c.1 4.5-3.6 8.1-8.1 8.1zM602.8 180.8h-39.8c-2.7 0-4.9-2.2-4.9-4.9s2.2-4.9 4.9-4.9h39.8c2.7 0 4.9 2.2 4.9 4.9s-2.2 4.9-4.9 4.9zM602.9 243.1h-39.8c-2.7 0-4.9-2.2-4.9-4.9s2.2-4.9 4.9-4.9h39.8c2.7 0 4.9 2.2 4.9 4.9-.1 2.7-2.2 4.9-4.9 4.9zM381.1 228.8h-38.2c-3.1 0-5.6 2.5-5.6 5.6v1.8c0 3.1 2.5 5.6 5.6 5.6h38.2c3.1 0 5.6-2.5 5.6-5.6v-1.8c0-3-2.5-5.6-5.6-5.6zM380 190.2h-35.7c-3.8 0-6.9 3.1-6.9 6.9v5.8c0 3.8 3.1 6.9 6.9 6.9h35.7c3.8 0 6.9-3.1 6.9-6.9v-5.8c0-3.8-3.1-6.9-6.9-6.9zM381.9 213.2h-39.8c-2.7 0-4.9 2.2-4.9 4.9s2.2 4.9 4.9 4.9h39.8c2.7 0 4.9-2.2 4.9-4.9s-2.2-4.9-4.9-4.9zM378.8 161.1h-33.3c-4.5 0-8.1 3.6-8.1 8.1v10.8c0 4.5 3.6 8.1 8.1 8.1h33.3c4.5 0 8.1-3.6 8.1-8.1v-10.8c0-4.4-3.7-8.1-8.1-8.1zM380.9 214.2h-39.8c-2.7 0-4.9 2.2-4.9 4.9s2.2 4.9 4.9 4.9h39.8c2.7 0 4.9-2.2 4.9-4.9s-2.2-4.9-4.9-4.9zM381 148.9h-39.8c-2.7 0-4.9 2.2-4.9 4.9s2.2 4.9 4.9 4.9h39.8c2.7 0 4.9-2.2 4.9-4.9s-2.2-4.9-4.9-4.9zM555.2 250.4v30.7c0 2.8-2.3 5.1-5.1 5.1h-2.8c-2.8 0-5.1-2.3-5.1-5.1v-30.7c0-2.8 2.3-5.1 5.1-5.1h2.8c2.8-.1 5.1 2.3 5.1 5.1zM590.9 249.4v28.4c0 3.5-2.8 6.3-6.3 6.3h-7c-3.5 0-6.3-2.8-6.3-6.3v-28.4c0-3.5 2.8-6.3 6.3-6.3h7c3.4 0 6.3 2.8 6.3 6.3zM568.8 247.6v32.2c0 2.4-2 4.4-4.4 4.4h-.9c-2.4 0-4.4-2-4.4-4.4v-32.2c0-2.4 2-4.4 4.4-4.4h.9c2.4 0 4.4 2 4.4 4.4zM618.9 250.5v26.3c0 4.1-3.3 7.4-7.4 7.4h-12.3c-4.1 0-7.4-3.3-7.4-7.4v-26.3c0-4.1 3.3-7.4 7.4-7.4h12.3c4.1 0 7.4 3.3 7.4 7.4zM566.8 248.4v32.2c0 2.4-2 4.4-4.4 4.4h-.9c-2.4 0-4.4-2-4.4-4.4v-32.2c0-2.4 2-4.4 4.4-4.4h.9c2.4 0 4.4 2 4.4 4.4zM630.1 248.4v32.2c0 2.4-2 4.4-4.4 4.4h-.9c-2.4 0-4.4-2-4.4-4.4v-32.2c0-2.4 2-4.4 4.4-4.4h.9c2.4-.1 4.4 1.9 4.4 4.4zM465.1 248.7v30.7c0 2.8-2.3 5.1-5.1 5.1h-2.8c-2.8 0-5.1-2.3-5.1-5.1v-30.7c0-2.8 2.3-5.1 5.1-5.1h2.8c2.8 0 5.1 2.3 5.1 5.1zM500.8 249.7v28.4c0 3.5-2.8 6.3-6.3 6.3h-7c-3.5 0-6.3-2.8-6.3-6.3v-28.4c0-3.5 2.8-6.3 6.3-6.3h7c3.5 0 6.3 2.8 6.3 6.3zM478.8 247.9v32.2c0 2.4-2 4.4-4.4 4.4h-.9c-2.4 0-4.4-2-4.4-4.4v-32.2c0-2.4 2-4.4 4.4-4.4h.9c2.4 0 4.4 2 4.4 4.4zM528.9 250.8v26.2c0 4.1-3.3 7.4-7.4 7.4h-12.3c-4.1 0-7.4-3.3-7.4-7.4v-26.3c0-4.1 3.3-7.4 7.4-7.4h12.3c4.1.1 7.4 3.4 7.4 7.5zM475.8 248.7v32.2c0 2.4-2 4.4-4.4 4.4h-.9c-2.4 0-4.4-2-4.4-4.4v-32.2c0-2.4 2-4.4 4.4-4.4h.9c2.4 0 4.4 2 4.4 4.4zM540.1 248.7v32.2c0 2.4-2 4.4-4.4 4.4h-.9c-2.4 0-4.4-2-4.4-4.4v-32.2c0-2.4 2-4.4 4.4-4.4h.9c2.4-.1 4.4 1.9 4.4 4.4zM373.1 248.3v30.7c0 2.8-2.3 5.1-5.1 5.1h-2.8c-2.8 0-5.1-2.3-5.1-5.1v-30.7c0-2.8 2.3-5.1 5.1-5.1h2.8c2.8-.1 5.1 2.2 5.1 5.1zM410.8 249.2v28.4c0 3.5-2.8 6.3-6.3 6.3h-7c-3.5 0-6.3-2.8-6.3-6.3v-28.4c0-3.5 2.8-6.3 6.3-6.3h7c3.5 0 6.3 2.9 6.3 6.3zM388.7 247.5v32.2c0 2.4-2 4.4-4.4 4.4h-.9c-2.4 0-4.4-2-4.4-4.4v-32.2c0-2.4 2-4.4 4.4-4.4h.9c2.4-.1 4.4 1.9 4.4 4.4zM438.8 250.3v26.3c0 4.1-3.3 7.4-7.4 7.4h-12.3c-4.1 0-7.4-3.3-7.4-7.4v-26.3c0-4.1 3.3-7.4 7.4-7.4h12.3c4.1 0 7.4 3.4 7.4 7.4zM385.7 248.3v32.2c0 2.4-2 4.4-4.4 4.4h-.9c-2.4 0-4.4-2-4.4-4.4v-32.2c0-2.4 2-4.4 4.4-4.4h.9c2.4 0 4.4 2 4.4 4.4zM450 248.2v32.2c0 2.4-2 4.4-4.4 4.4h-.9c-2.4 0-4.4-2-4.4-4.4v-32.2c0-2.4 2-4.4 4.4-4.4h.9c2.4 0 4.4 2 4.4 4.4zM345.4 248.8v30.7c0 2.8-2.3 5.1-5.1 5.1h-2.8c-2.8 0-5.1-2.3-5.1-5.1v-30.7c0-2.8 2.3-5.1 5.1-5.1h2.8c2.8 0 5.1 2.3 5.1 5.1zM359 247v32.2c0 2.4-2 4.4-4.4 4.4h-.9c-2.4 0-4.4-2-4.4-4.4v-32.2c0-2.4 2-4.4 4.4-4.4h.9c2.4 0 4.4 2 4.4 4.4zM358 247.9v32.1c0 2.4-2 4.4-4.4 4.4h-.9c-2.4 0-4.4-2-4.4-4.4v-32.2c0-2.4 2-4.4 4.4-4.4h.9c2.4 0 4.4 2 4.4 4.5zM330.3 247.7v32.2c0 2.4-2 4.4-4.4 4.4h-.9c-2.4 0-4.4-2-4.4-4.4v-32.2c0-2.4 2-4.4 4.4-4.4h.9c2.4 0 4.4 2 4.4 4.4zM379.7 133.3h-38.2c-3.1 0-5.6-2.5-5.6-5.6v-1.8c0-3.1 2.5-5.6 5.6-5.6h38.2c3.1 0 5.6 2.5 5.6 5.6v1.8c0 3.1-2.5 5.6-5.6 5.6zM380.5 148.9h-39.8c-2.7 0-4.9-2.2-4.9-4.9s2.2-4.9 4.9-4.9h39.8c2.7 0 4.9 2.2 4.9 4.9 0 2.8-2.2 4.9-4.9 4.9zM379.5 147.9h-39.8c-2.7 0-4.9-2.2-4.9-4.9s2.2-4.9 4.9-4.9h39.8c2.7 0 4.9 2.2 4.9 4.9 0 2.8-2.2 4.9-4.9 4.9zM602.5 137h-38.2c-3.1 0-5.6-2.5-5.6-5.6v-1.8c0-3.1 2.5-5.6 5.6-5.6h38.2c3.1 0 5.6 2.5 5.6 5.6v1.8c.1 3-2.5 5.6-5.6 5.6zM603.4 152.6h-39.8c-2.7 0-4.9-2.2-4.9-4.9s2.2-4.9 4.9-4.9h39.8c2.7 0 4.9 2.2 4.9 4.9-.1 2.7-2.2 4.9-4.9 4.9zM602.4 151.6h-39.8c-2.7 0-4.9-2.2-4.9-4.9s2.2-4.9 4.9-4.9h39.8c2.7 0 4.9 2.2 4.9 4.9-.1 2.7-2.2 4.9-4.9 4.9zM493.4 84.2l-4.5 31.2c-.4 2.6-2.8 4.4-5.4 4l-1.7-.2c-2.6-.4-4.4-2.8-4-5.4l4.5-31.2c.4-2.6 2.8-4.4 5.4-4l1.7.2c2.6.4 4.4 2.8 4 5.4zM477.8 82.9v32.2c0 2.4-2 4.4-4.4 4.4h-.9c-2.4 0-4.4-2-4.4-4.4v-32.2c0-2.4 2-4.4 4.4-4.4h.9c2.4 0 4.4 2 4.4 4.4zM385.5 102.3l13.7 27.5c1.3 2.5.2 5.6-2.3 6.9l-2.5 1.3c-2.5 1.3-5.6.2-6.9-2.3l-13.7-27.5c-1.3-2.5-.2-5.6 2.3-6.9l2.5-1.3c2.5-1.3 5.6-.2 6.9 2.3zM421.7 90.8l6.4 27.7c.8 3.4-1.3 6.8-4.7 7.5l-6.9 1.6c-3.4.8-6.8-1.3-7.5-4.7l-6.4-27.7c-.8-3.4 1.3-6.8 4.7-7.5l6.9-1.6c3.3-.8 6.7 1.3 7.5 4.7zM450.9 88.7l4.1 25.9c.6 4-2.1 7.8-6.1 8.5l-12.1 1.9c-4 .6-7.8-2.1-8.5-6.1l-4.1-25.9c-.6-4 2.1-7.8 6.1-8.5l12.1-1.9c4-.7 7.8 2.1 8.5 6.1zM396.3 95.9l11.6 30c.9 2.3-.3 4.8-2.5 5.7l-.8.3c-2.3.9-4.8-.3-5.7-2.5l-11.6-30c-.9-2.3.3-4.8 2.5-5.7l.8-.3c2.2-.9 4.8.3 5.7 2.5zM463.4 83.5l3.8 31.9c.3 2.4-1.4 4.6-3.9 4.9l-.9.1c-2.4.3-4.6-1.4-4.9-3.9l-3.8-31.9c-.3-2.4 1.4-4.6 3.9-4.9l.9-.1c2.4-.3 4.7 1.4 4.9 3.9zM360 116.6l16.5 25.9c1.5 2.4.8 5.6-1.6 7.1l-2.4 1.5c-2.4 1.5-5.6.8-7.1-1.6l-16.4-25.9c-1.5-2.4-.8-5.6 1.6-7.1l2.4-1.5c2.3-1.5 5.5-.8 7 1.6zM370.2 109.8l15.3 28.3c1.2 2.1.3 4.8-1.8 6l-.8.4c-2.1 1.2-4.8.3-6-1.8l-15.3-28.3c-1.2-2.1-.3-4.8 1.8-6l.8-.4c2.1-1.1 4.8-.3 6 1.8zM348.9 123.5l17.3 27.1c1.3 2.1.7 4.8-1.4 6.1l-.7.5c-2.1 1.3-4.8.7-6.1-1.4l-17.3-27.1c-1.3-2.1-.7-4.8 1.4-6.1l.7-.5c2-1.2 4.8-.6 6.1 1.4zM556.5 102l-11.1 28.7c-1 2.6.3 5.6 2.9 6.6l2.6 1c2.6 1 5.6-.3 6.6-2.9l11.1-28.7c1-2.6-.3-5.6-2.9-6.6l-2.6-1c-2.6-1.1-5.6.2-6.6 2.9zM544.8 97.7l-11.6 30c-.9 2.3.3 4.8 2.5 5.7l.8.3c2.3.9 4.8-.3 5.7-2.5l11.6-30c.9-2.3-.3-4.8-2.5-5.7l-.8-.3c-2.2-.9-4.8.3-5.7 2.5zM582.6 116.3l-16.5 25.9c-1.5 2.4-.8 5.6 1.6 7.1l2.4 1.5c2.4 1.5 5.6.8 7.1-1.6l16.5-25.9c1.5-2.4.8-5.6-1.6-7.1l-2.4-1.5c-2.4-1.5-5.6-.8-7.1 1.6zM572.2 109.4l-17.2 27.2c-1.3 2.1-.7 4.8 1.4 6.1l.7.5c2.1 1.3 4.8.7 6.1-1.4l17.3-27.1c1.3-2.1.7-4.8-1.4-6.1l-.7-.5c-2.1-1.3-4.9-.7-6.2 1.3zM595.7 124.2l-17.3 27.1c-1.3 2.1-.7 4.8 1.4 6.1l.7.5c2.1 1.3 4.8.7 6.1-1.4l17.3-27.1c1.3-2.1.7-4.8-1.4-6.1l-.7-.5c-2.1-1.2-4.8-.6-6.1 1.4zM523.3 92.6l-7.3 27.5c-.9 3.3 1.1 6.8 4.5 7.7l6.8 1.8c3.3.9 6.8-1.1 7.7-4.5l7.3-27.5c.9-3.3-1.1-6.8-4.5-7.7l-6.8-1.8c-3.4-.9-6.9 1.1-7.7 4.5zM493.8 89.9l-4.1 25.9c-.6 4 2.1 7.8 6.1 8.5l12.1 1.9c4 .6 7.8-2.1 8.5-6.1l4.1-25.9c.6-4-2.1-7.8-6.1-8.5l-12.1-1.9c-4-.7-7.9 2.1-8.5 6.1z"/><path class="st5" d="M32.6 219s135.6-87.9 283.9 0 278.1 38.5 347.1-1.1"/><path class="st1" d="M83.6 190c2.9-.7 4.9-1.5 6-2.4 1.9-1.5 2.5-3.9 1.9-7l-10.1-52.3c-.6-3.1-2-5-4.1-5.7-1.3-.4-3.6-.5-6.8 0l-.5-2.7 36.5-7.1.5 2.7c-3.7 1-6 2.2-7.1 3.6-1.1 1.3-1.2 4-.4 8.1l4.5 23.1 18.7-28c1.3-1.9 2.1-3.3 2.5-4.1.3-.8.4-1.7.2-2.6-.3-1.4-1.1-2.1-2.4-2.3-1.3-.1-3.8 0-7.4.5l-.6-2.8 31.3-6.1.5 2.7c-5.5 1.5-9.8 4-13 7.4-3.1 3.4-8.8 11.4-17 23.8l40.9 34.4c.9.7 1.7 1.2 2.4 1.3.7.1 1.8.1 3.3-.1l.5 2.7-36.2 7-.5-2.7c3.3-.7 5.5-1.2 6.6-1.7 1.1-.5 1.6-1.2 1.4-2.2-.1-.5-.4-1-.9-1.7-.5-.6-1.4-1.5-2.6-2.5l-24.4-20.7-2.2 3.3 4.1 21.1c.6 3.1 2.1 5.1 4.4 5.8 1.3.4 3.5.4 6.5 0l.5 2.7-36.4 7.1-.6-2.6zM170 134.7c4.6-4.6 10.1-6.7 16.4-6.6 3.6.1 7 1.1 10.1 3.1 3.1 2 5.5 4.7 7.2 8.1 1.2 2.6 2 5.9 2.4 9.9.2 1.9.3 3.4.3 4.4l-28.1-.7c.1 4.4.8 8.2 1.9 11.5 2 6.1 5.7 9.2 11.1 9.4 2.6.1 5-.7 7.4-2.2 1.4-.9 3.2-2.5 5.3-4.8l2.5 1.6c-3.5 5.5-7.6 9.3-12.1 11.3-2.9 1.3-6.3 1.9-10.1 1.8-5.4-.1-10.4-2.4-15-6.8s-6.8-11.2-6.6-20.6c.2-8.4 2.7-14.9 7.3-19.4zm23 14.5c.1-6.5-.3-11-1.2-13.6-.9-2.6-2.7-3.9-5.5-4-2.9-.1-4.9 1.4-6 4.3-1.1 2.9-1.9 7.3-2.1 12.9l14.8.4zM213.1 135.7l.5-3c1.1-.7 2.5-1.6 4.1-2.5 2.2-1.4 4.2-2.9 6.2-4.4 3.9-3 7.5-6.4 10.9-10.1l2.8.5-3.1 18.3 10.3 1.8-.8 4.7-10.3-1.8-5.5 32.6c-.3 1.5-.2 2.8 0 3.9.4 1.7 1.5 2.7 3.1 3 1.4.2 2.7-.1 3.8-.9s2.3-2.1 3.6-3.7l2.4 1.7c-1.8 2.7-3.7 4.9-5.8 6.5-3.7 2.8-7.7 3.8-12.2 3-2.5-.4-4.7-1.3-6.4-2.6-3.4-2.5-4.6-6.1-3.8-10.9l6-35.2-5.8-.9zM250.3 142.4l.9-2.9c1.2-.6 2.6-1.2 4.4-2 2.3-1.1 4.6-2.4 6.7-3.7 4.2-2.5 8.3-5.4 12.1-8.7l2.7.8-5.3 17.8 10 3-1.4 4.6-10-3-9.5 31.7c-.4 1.5-.6 2.8-.4 3.9.2 1.7 1.1 2.9 2.7 3.3 1.4.4 2.7.3 3.9-.4 1.2-.7 2.5-1.8 4-3.2l2.2 2c-2.1 2.5-4.3 4.4-6.5 5.7-4 2.3-8.1 2.8-12.5 1.5-2.5-.7-4.5-1.8-6.1-3.3-3-2.8-3.9-6.6-2.5-11.3l10.2-34.2-5.6-1.6zM270.3 193.6c2 .3 3.5.3 4.5-.1s2-1.7 3-4l21.9-51.6c.9-2.2 1.2-3.7.8-4.7-.4-1-1.5-2.1-3.2-3.3l1-2.4 19.2 8.1-25.4 59.9c-1 2.2-1.2 3.9-.8 4.9.4 1 1.5 2.1 3.1 3.4l-1 2.4-24.1-10.2 1-2.4zM322.4 170.5c6.2-1.8 12.1-1.2 17.6 2 3.1 1.8 5.6 4.3 7.5 7.5s2.7 6.7 2.5 10.5c-.1 2.8-1 6.2-2.6 9.9-.7 1.8-1.3 3.1-1.8 4l-24.4-13.9c-2 4-3.2 7.6-3.8 11-1.1 6.3.7 10.8 5.4 13.5 2.2 1.3 4.8 1.8 7.6 1.5 1.7-.1 4-.7 7-1.7l1.4 2.6c-5.7 3.2-11.1 4.6-16.1 4.3-3.2-.2-6.5-1.3-9.7-3.1-4.7-2.7-8.1-7-10.1-13.1-2-6-.7-13.1 3.9-21.2 4.1-7.3 9.3-11.9 15.6-13.8zm13.4 23.7c3.1-5.7 5-9.8 5.4-12.6.5-2.7-.5-4.7-3-6.1-2.5-1.4-4.9-1.1-7.3.9-2.4 2.1-5.1 5.5-8 10.4l12.9 7.4zM338.2 231.1c2 .5 3.4.5 4.3.2 1.5-.5 2.7-2 3.6-4.4l11.1-30.4c.8-2.2.9-3.8.5-4.9-.5-1.1-1.8-2.1-3.9-3.2l.9-2.5 19.6 7.1-2.7 7.4c2.5-1.6 4.8-2.8 6.9-3.4 3.8-1.2 7.6-1.1 11.2.3 4.1 1.5 7 3.7 8.6 6.4.9 1.6 1.4 3.8 1.6 6.8l.7.3c2.8-1.7 5.3-2.8 7.6-3.4 3.5-1 7-.8 10.3.4 3.6 1.3 6.4 3.7 8.3 7s2 7.5.2 12.5l-9.5 26c-.9 2.4-1 4.1-.5 5 .5.9 1.7 1.9 3.6 2.8l-.9 2.5-24.5-8.9.9-2.5c2 .4 3.5.4 4.4 0 1-.4 1.9-1.7 2.7-4.1l9.1-25c1-2.7 1.3-4.9 1.1-6.7-.3-1.8-1.5-3.1-3.7-3.9-1.8-.6-4-.5-6.5.4-2.6.9-4 1.7-4.2 2.3l-10 27.8c-.8 2.3-1 3.8-.6 4.7.4.9 1.5 1.8 3.2 2.9l-.9 2.5-24.2-8.8.9-2.5c1.9.4 3.4.5 4.4.1s1.9-1.7 2.8-4.1l9.1-25c1-2.6 1.3-4.8 1.2-6.6-.2-1.8-1.4-3.1-3.8-3.9-2.1-.8-4.4-.6-6.9.4-2.4 1.1-3.8 1.8-3.9 2.3l-10.1 27.7c-.8 2.3-1 3.8-.6 4.7.4.9 1.5 1.8 3.2 2.9l-.9 2.5-24.7-9 1-2.7zM438.4 242.4c5-2.4 12.8-4.5 23.2-6.3l.9-8c.4-3.2-.1-5.7-1.3-7.4-1.2-1.7-3.5-2.7-7-3.1-2-.2-3.6 0-5 .6-1.3.6-2.1 1.4-2.2 2.5 0 .4 0 .8.1 1.1.1.3.3.6.5 1l.6.8c.4.7.8 1.4 1 2.1.2.8.3 1.6.2 2.4-.2 2.1-1.1 3.6-2.6 4.6-1.5 1-3.1 1.4-5 1.2-2.1-.2-3.8-1-5.2-2.4-1.3-1.4-1.9-3.3-1.6-5.6.5-4.2 2.8-7.3 7-9.3 4.2-2 9.2-2.7 15-2.1 6.2.7 11.2 2.4 15.1 5.3 3.9 2.9 5.4 7.5 4.7 14l-2.9 26.5c-.1.8 0 1.5.4 2.1.3.6.8.9 1.3 1 .4 0 .8 0 1.2-.1.4-.1.9-.5 1.7-1.1l1.4 2.5c-2.4 2.3-5 3.7-7.7 4.5-1.7.5-3.5.6-5.3.4-3.2-.4-5.5-1.6-6.8-3.6-.7-1.2-1.2-2.8-1.4-5-3.4 2.7-7 4.5-11 5.3-2.4.5-4.7.7-7 .4-3-.3-5.7-1.6-8.1-3.8-2.4-2.2-3.4-5.3-2.9-9.3.8-5.2 3.6-8.9 8.7-11.2zm17.5 16.1c.9-.5 2-1.4 3.4-2.7l1.7-16c-3 .4-5.7 1.2-8.1 2.5-4 2.2-6.3 5.3-6.7 9.3-.3 2.4.1 4.3 1 5.6 1 1.3 2.1 2.1 3.5 2.2 1.8.4 3.5 0 5.2-.9zM483.8 266.7c2-.4 3.4-1.1 4.3-2 .9-.9 1.2-2.6 1-5.1l-2.7-32.2c-.2-2.2-.7-3.7-1.5-4.5-.8-.8-2.4-1.2-4.8-1.3l-.2-2.6 20.8-1.7.7 7.9c1.5-2.8 3.6-5.2 6.1-7.1 2.5-2 5.5-3.1 8.7-3.3 4.7-.4 8.5.5 11.2 2.7s4.4 6.4 4.9 12.5l2.2 26.5c.2 2.5.8 4 1.7 4.7.9.6 2.3 1 4.3 1.1l.2 2.6-25.7 2.1-.2-2.6c1.9-.6 3.2-1.2 3.9-1.9.7-.7.9-2.3.7-4.7l-2.2-26.5c-.2-2.5-.6-4.3-1.2-5.6-1-2.2-2.8-3.2-5.4-2.9-1.9.2-3.6 1-5 2.5-1.5 1.5-2.6 3-3.3 4.5l2.4 29.3c.2 2.4.7 3.9 1.5 4.5.8.6 2.2 1 4.1 1.3l.2 2.6-26.4 2.2-.3-3zM543.3 220.8c2.7-3 4.6-5.5 5.9-7.5 2.2-3.6 3-6.7 2.4-9.3-.2-.7-.5-1.2-.9-1.7-.5-.4-1.1-.5-1.8-.3-1.1.5-1.9.7-2.2.8-2.3.5-4.4.2-6.2-1-1.9-1.2-3.1-3-3.7-5.4-.6-2.7-.4-5 .8-7.1 1.2-2.1 3.2-3.4 5.9-4.1 3-.7 5.8-.2 8.4 1.5s4.4 4.5 5.3 8.3c1.3 5.5.4 11.1-2.8 16.7-2 3.5-5.1 7.2-9.3 11.1l-1.8-2zM569.5 240.3l2.9-1c2.7 4.6 5.8 7.5 9.3 8.6 3.5 1.1 6.7 1.2 9.6.2 2.7-.9 4.4-2.2 5.3-3.8.8-1.6.9-3.4.3-5.4-.6-1.9-1.8-3.2-3.6-4.1-1-.5-2.4-.8-4.4-1.1l-9-1.2c-4.7-.6-8.4-1.8-11-3.6-2.6-1.7-4.4-4.2-5.5-7.4-1.4-4-1.1-8 .7-11.9 1.8-3.9 5.3-6.7 10.3-8.4 2.2-.7 4.7-1.2 7.4-1.3 2.7-.1 4.4-.3 5-.5.8-.3 1.4-.7 1.6-1.1.2-.5.4-1.1.4-1.8l2.3-.8 5.1 15.1-2.6.9c-2.2-3.2-4.7-5.5-7.7-6.9-3-1.4-5.9-1.6-8.9-.6-2.3.8-3.8 2-4.5 3.7-.7 1.7-.8 3.3-.3 4.7.4 1.2 1.3 2.3 2.8 3.1 1.4.9 3.7 1.6 6.9 2l6.6.8c4.1.5 7.2 1.3 9.4 2.3 3.6 1.8 6.1 4.7 7.5 8.7 1.3 3.9 1.1 7.9-.6 12.2s-5.3 7.4-10.9 9.3c-1.4.5-2.8.8-4.3 1s-3.4.3-5.7.3h-3.3l-.6.1c-.6.2-1 .6-1.3 1.2-.3.6-.5 1.5-.7 2.8l-2.5.8-6-16.9z"/><path class="st5" d="M83.6 270.4s88.2-67.3 203.2 0"/><path class="st3" d="M91.3 218.5l16.2-5.8c3.2-1.1 5.6-1.9 7.3-2.2 1.7-.3 3.3-.3 4.8.1s3 1.1 4.3 2.1c1.3 1 2.3 2.4 2.9 4.1.6 1.8.7 3.7.3 5.5-.5 1.9-1.5 3.5-2.9 4.9 2.7-.2 5 .3 6.9 1.5 1.9 1.2 3.3 2.9 4.1 5.1.6 1.8.8 3.6.6 5.6-.3 2-1 3.7-2.1 5.2s-2.7 2.8-4.8 3.8c-1.3.6-4.6 1.9-9.8 3.8l-13.8 4.9-14-38.6zm10.4 3.5l3.2 8.9 5.3-1.9c3.2-1.1 5.1-1.9 5.9-2.3 1.3-.7 2.3-1.5 2.8-2.6s.6-2.2.1-3.4c-.4-1.2-1.1-2-2.1-2.5s-2.1-.6-3.6-.3c-.8.2-3.2 1-7 2.4l-4.6 1.7zm5.5 15.3l3.7 10.3 7.6-2.7c2.9-1.1 4.8-1.8 5.5-2.2 1.1-.6 1.9-1.5 2.4-2.6s.5-2.3 0-3.7c-.4-1.2-1.1-2-1.9-2.6-.9-.6-1.9-.9-3.2-.9-1.2 0-3.7.7-7.4 2l-6.7 2.4zM179.2 239.3l-9.3 1.3-5-8.7-17 2.4-2.2 9.7-9.1 1.3 10.9-43 9.1-1.3 22.6 38.3zm-18.1-13.9l-8-14.3-3.6 15.9 11.6-1.6zM196.2 225.8l.4-6.9 18.7 1.2-1 16.3c-1.9 1.6-4.6 2.9-8.2 3.9-3.5 1.1-7 1.5-10.6 1.3-4.5-.3-8.3-1.4-11.6-3.4s-5.6-4.7-7-8.2c-1.5-3.4-2.1-7.1-1.8-11.1.3-4.3 1.4-8 3.5-11.2 2.1-3.2 5-5.6 8.7-7.1 2.8-1.2 6.3-1.7 10.4-1.4 5.3.3 9.4 1.7 12.3 4s4.6 5.4 5.2 9.2l-8.7 1c-.5-2-1.5-3.7-3.1-5-1.6-1.3-3.6-2-6.1-2.1-3.8-.2-6.9.7-9.2 2.9-2.4 2.2-3.7 5.5-4 10-.3 4.9.6 8.6 2.7 11.2 2.1 2.6 5 4 8.7 4.2 1.8.1 3.7-.1 5.5-.7 1.9-.6 3.5-1.3 4.8-2.2l.3-5.2-9.9-.7zM215.3 242.7l10.4-39.7 30.8 8-1.8 6.7-22.4-5.8-2.3 8.8 20.9 5.4-1.7 6.7-20.9-5.4-2.8 10.8 23.2 6.1-1.7 6.7-31.7-8.3zM249.1 252.1l16.3-37.3 7.9 3.5-13.6 31 19.8 8.7-2.8 6.3-27.6-12.2z"/><path class="st5" d="M92 256.2h190.4v119.7h-190.4z"/><path class="st3" d="M170.8 278.8l7 2.2c-1.1 3.9-2.9 6.8-5.4 8.7-2.5 1.9-5.7 2.8-9.5 2.8-4.8 0-8.7-1.6-11.7-4.9-3.1-3.2-4.6-7.7-4.6-13.3 0-6 1.5-10.6 4.6-13.9 3.1-3.3 7.1-4.9 12.1-4.9 4.4 0 7.9 1.3 10.7 3.9 1.6 1.5 2.8 3.7 3.7 6.6l-7.2 1.7c-.4-1.9-1.3-3.3-2.6-4.4-1.3-1.1-3-1.6-4.9-1.6-2.7 0-4.8 1-6.5 2.9-1.7 1.9-2.5 5-2.5 9.3 0 4.5.8 7.7 2.4 9.7 1.6 1.9 3.7 2.9 6.3 2.9 1.9 0 3.6-.6 5-1.8 1.5-1.4 2.5-3.3 3.1-5.9zM181 274.3c0-3.6.5-6.7 1.6-9.2.8-1.8 1.9-3.5 3.3-4.9 1.4-1.4 3-2.5 4.6-3.2 2.2-.9 4.8-1.4 7.7-1.4 5.3 0 9.5 1.6 12.7 4.9 3.2 3.3 4.7 7.8 4.7 13.6s-1.6 10.3-4.7 13.6c-3.1 3.3-7.3 4.9-12.6 4.9s-9.6-1.6-12.7-4.9c-3-3.3-4.6-7.7-4.6-13.4zm7.5-.3c0 4.1.9 7.1 2.8 9.2 1.9 2.1 4.2 3.1 7.1 3.1s5.2-1 7.1-3.1c1.8-2.1 2.8-5.2 2.8-9.3 0-4.1-.9-7.2-2.7-9.2-1.8-2-4.2-3-7.2-3s-5.4 1-7.2 3.1c-1.8 2-2.7 5.1-2.7 9.2zM219.8 292v-6.9h6.9v6.9h-6.9z"/></g></svg>