<svg xmlns="http://www.w3.org/2000/svg" width="556.8" height="552.1" viewBox="0 0 556.8 552.1"><style type="text/css">.st0{fill:#CC9966;} .st1{fill:#FFFFFF;}</style><path class="st0" d="M362.5 221.4c1 .2 2.2.3 3.4.4-.9.6-1.8 1.1-2.8 1.5-.2-.5-.4-1.2-.6-1.9zM399.6 195.6c1.3.3 3 .4 4.6.6-1.2.8-2.5 1.5-3.8 2-.2-.8-.5-1.7-.8-2.6z"/><path class="st1" d="M277.3 30.8c-137 0-248.2 111.1-248.2 248.2s111.1 248.2 248.2 248.2 248.2-111.1 248.2-248.2-111.1-248.2-248.2-248.2zm127 193.8s5.8 133-85.3 176.3c-91 43.2-187.9 0-187.9 0s67.7-4.7 93.4-38.6c0 0-56 3.5-85.3-102.7 0 0 19.9 5.8 33.8 0 0 0-31.4-18.7-33.8-99.2 0 0 74.7 86.3 149.5 78.2 0 0-4.7-78.2 57.2-78.2 25.7 0 40 11 48 23.9 8.5-1.8 23.8-7.1 35.7-21.7-.7 1.7-10.6 24.3-25.5 33.7 8.7.8 19.9.1 31.7-5.2 0 0-16.2 14-32.8 17.9 1.7 8.9 1.3 15.6 1.3 15.6z"/><path class="st0" d="M365.9 221.9c-.9.6-1.8 1.1-2.8 1.5-.2-.6-.4-1.3-.6-2 1 .2 2.2.4 3.4.5zM365.9 221.9c-.9.6-1.8 1.1-2.8 1.5-.2-.6-.4-1.3-.6-2 1 .2 2.2.4 3.4.5zM365.9 221.9c-.9.6-1.8 1.1-2.8 1.5-.2-.6-.4-1.3-.6-2 1 .2 2.2.4 3.4.5z"/></svg>